<svg fill="#ffffff" id="Capa_1" enable-background="new 0 0 524.236 524.236" height="512" viewBox="0 0 524.236 524.236" width="512"
  xmlns="http://www.w3.org/2000/svg">
  <path d="m458.706 65.529h-65.529c0-18.096-14.669-32.765-32.765-32.765h-196.588c-10.509 0-19.44 5.267-25.435 12.961l90.219 90.219c10.763-2.868 21.858-4.886 33.511-4.886 72.265 0 131.059 58.794 131.059 131.059 0 11.653-2.018 22.748-4.886 33.511l128.057 128.057c4.868-9.155 7.887-19.434 7.887-30.509v-262.117c0-36.141-29.389-65.53-65.53-65.53z"/>
  <path d="m0 46.331 29.879 29.879c-17.944 11.701-29.879 31.869-29.879 54.848v262.118c0 36.14 29.389 65.529 65.529 65.529h346.844l65.529 65.529 46.331-46.331-477.902-477.902-46.331 46.331zm262.118 346.844c-72.265 0-131.059-58.794-131.059-131.059 0-24.232 7.059-46.663 18.572-66.155l178.642 178.642c-19.492 11.513-41.924 18.572-66.155 18.572z"/>
</svg>
